<svg width="18" height="12" viewBox="0 0 18 12" fill="none" xmlns="http://www.w3.org/2000/svg">
<path fill-rule="evenodd" clip-rule="evenodd" d="M0.2925 6.29255L4.8825 10.8825C5.2725 11.2725 5.9025 11.2725 6.2925 10.8825C6.6825 10.4925 6.6825 9.86255 6.2925 9.47255L2.4125 5.58255L6.2925 1.70255C6.6825 1.31255 6.6825 0.682548 6.2925 0.292548C5.9025 -0.0974518 5.2725 -0.0974518 4.8825 0.292548L0.2925 4.88255C-0.0975 5.26255 -0.0975 5.90255 0.2925 6.29255Z" fill="#001F54"/>
<path fill-rule="evenodd" clip-rule="evenodd" d="M17.2925 4.8825L12.7025 0.2925C12.3125 -0.0975 11.6825 -0.0975 11.2925 0.2925C10.9025 0.6825 10.9025 1.3125 11.2925 1.7025L15.1725 5.5925L11.2925 9.4725C10.9025 9.8625 10.9025 10.4925 11.2925 10.8825C11.6825 11.2725 12.3125 11.2725 12.7025 10.8825L17.2925 6.2925C17.6825 5.9125 17.6825 5.2725 17.2925 4.8825Z" fill="#001F54"/>
</svg>
